<?xml version="1.0" standalone="no"?>
<!DOCTYPE svg PUBLIC "-//W3C//DTD SVG 20010904//EN"
 "http://www.w3.org/TR/2001/REC-SVG-20010904/DTD/svg10.dtd">
<svg version="1.0" xmlns="http://www.w3.org/2000/svg"
 width="300.000000pt" height="112.000000pt" viewBox="0 0 300.000000 112.000000"
 preserveAspectRatio="xMidYMid meet">
<metadata>
Created by potrace 1.10, written by Peter Selinger 2001-2011
</metadata>
<g transform="translate(0.000000,112.000000) scale(0.100000,-0.100000)"
fill="#000000" stroke="none">
<path d="M40 560 l0 -521 103 3 102 3 3 203 2 202 90 0 90 0 137 -205 c132
-198 137 -205 170 -205 36 0 42 10 17 30 -40 34 -38 48 15 106 l51 55 -57 82
c-32 45 -70 100 -85 121 l-29 40 53 19 c71 27 140 97 163 166 24 73 17 199
-13 258 -30 57 -85 111 -141 137 -43 20 -65 21 -358 24 l-313 3 0 -521z m578
322 c36 -20 65 -95 57 -143 -8 -49 -50 -94 -101 -108 -21 -6 -103 -11 -181
-11 l-143 0 0 138 c0 76 2 141 4 143 2 2 80 2 173 -1 113 -3 176 -9 191 -18z"/>
<path d="M1110 688 c0 -240 -4 -408 -10 -430 -14 -48 -43 -68 -101 -68 -36 0
-55 6 -78 26 l-31 25 -54 -58 c-31 -32 -55 -63 -56 -70 0 -16 58 -63 107 -85
49 -21 166 -26 230 -9 49 13 113 58 143 101 13 18 30 56 40 86 16 54 17 54 35
34 16 -17 17 -25 6 -59 -6 -22 -27 -62 -46 -90 l-35 -51 95 0 95 0 1 58 c0 31
0 188 -1 347 -1 192 2 287 9 280 5 -5 53 -110 107 -232 l97 -223 92 0 92 0 99
227 99 228 3 -343 2 -342 105 0 105 0 0 520 0 521 -131 -3 -132 -3 -62 -145
c-34 -80 -88 -207 -120 -284 -57 -134 -59 -137 -72 -112 -7 14 -51 115 -97
223 -46 109 -96 226 -111 261 l-28 62 -198 0 -199 0 0 -392z"/>
<path d="M2300 560 l0 -520 345 0 345 0 0 95 0 95 -240 0 -240 0 0 425 0 425
-105 0 -105 0 0 -520z"/>
</g>
</svg>
